<?xml version="1.0" encoding="iso-8859-1"?>
<!-- Generator: Adobe Illustrator 19.0.0, SVG Export Plug-In . SVG Version: 6.00 Build 0)  -->
<svg version="1.1" id="Capa_1" xmlns="http://www.w3.org/2000/svg" xmlns:xlink="http://www.w3.org/1999/xlink" x="0px" y="0px"
	 viewBox="0 0 512 512" style="enable-background:new 0 0 512 512;" xml:space="preserve">
<path style="fill:#FF5F5F;" d="M512,14.641v148.117c0,3.489-2.221,6.588-5.537,7.704l-74.291,25.02
	c-0.856,0.293-1.734,0.433-2.59,0.433c-3.392,0-6.556-2.146-7.704-5.537l-7.379-21.91L377.06,57.378
	c-1.43-4.259,0.856-8.864,5.115-10.305L501.272,6.947c2.481-0.845,5.212-0.433,7.347,1.094C510.743,9.57,512,12.03,512,14.641z"/>
<path style="fill:#FFD2C0;" d="M416.283,189.959L377.223,74.004c-0.688-2.043-2.16-3.728-4.091-4.685
	c-1.932-0.959-4.163-1.11-6.207-0.422l-41.94,14.132l-94.961-15.684c-0.931-0.156-1.882-0.145-2.81,0.027l-84.457,15.699
	c-1.317,0.246-2.553,0.812-3.598,1.649L25.822,175.573c-10.639,8.31-12.82,23.414-4.964,34.388
	c5.65,7.89,15.454,11.844,24.991,10.071c2.828-0.532,5.52-1.531,8.001-2.97l122.478-67.157l66.243,26.093l-30.538,5.673
	c-8.464,1.576-15.808,6.352-20.678,13.45c-4.872,7.099-6.686,15.669-5.11,24.128c2.873,15.491,16.45,26.348,31.678,26.348
	c1.943,0,3.915-0.178,5.893-0.544l124.482-23.132c0.399-0.074,0.79-0.178,1.174-0.31l61.769-21.377
	C415.456,198.775,417.707,194.188,416.283,189.959z"/>
<path style="fill:#F4AE98;" d="M416.283,189.959l-6.767-20.088c-0.161,0.068-0.322,0.139-0.49,0.197l-61.769,21.377
	c-0.383,0.132-0.775,0.236-1.174,0.31l-124.479,23.133c-1.978,0.366-3.95,0.544-5.893,0.544c-11.173,0-21.452-5.85-27.271-15.083
	c-2.614,5.893-3.399,12.428-2.194,18.899c2.873,15.491,16.45,26.348,31.678,26.348c1.943,0,3.915-0.178,5.893-0.544l124.48-23.132
	c0.399-0.074,0.79-0.178,1.174-0.31l61.769-21.377C415.456,198.775,417.707,194.188,416.283,189.959z"/>
<path style="fill:#E24B4B;" d="M512,126.252v36.506c0,3.489-2.221,6.588-5.537,7.704l-74.291,25.02
	c-0.856,0.293-1.734,0.433-2.59,0.433c-3.392,0-6.556-2.146-7.704-5.537l-7.379-21.91l4.865-11.009L512,126.252z"/>
<path style="fill:#EF737A;" d="M493.805,198.788L429.24,7.154c-0.688-2.043-2.16-3.728-4.091-4.685
	c-1.931-0.958-4.164-1.11-6.206-0.422l-66.937,22.557c-4.253,1.434-6.54,6.042-5.106,10.296l64.554,191.627
	c1.143,3.393,4.308,5.533,7.7,5.533c0.859,0,1.735-0.138,2.595-0.428l66.948-22.549c2.043-0.688,3.729-2.159,4.687-4.09
	C494.343,203.064,494.493,200.83,493.805,198.788z"/>
<path style="fill:#FF5F5F;" d="M482.034,164.835c0.688,2.043,0.537,4.275-0.422,6.207c-0.958,1.931-2.643,3.402-4.687,4.089
	l-66.947,22.549c-0.86,0.29-1.736,0.428-2.595,0.428c-2.679,0-5.197-1.349-6.71-3.579l10.78,31.999
	c1.143,3.393,4.308,5.533,7.7,5.533c0.859,0,1.735-0.138,2.595-0.428l66.948-22.549c2.043-0.688,3.729-2.159,4.687-4.09
	c0.958-1.931,1.11-4.164,0.422-6.207"/>
<path style="fill:#C99363;" d="M373.179,370.61l-64.954,50.264c-33.479,25.907-80.237,25.907-113.715,0l-64.954-50.264H0v139.769
	h502.735V370.61H373.179z"/>
<rect x="477.813" y="370.612" style="fill:#BA7F4F;" width="24.923" height="139.762"/>
<g>
	<path style="fill:#FF8A57;" d="M174.652,250.768c-2.818-2-6.593-2-9.411,0c-10.858,7.71-17.339,20.247-17.339,33.537
		s6.482,25.826,17.339,33.536c1.409,1,3.057,1.501,4.705,1.501s3.296-0.501,4.705-1.501c10.858-7.71,17.339-20.247,17.339-33.536
		C191.991,271.015,185.509,258.478,174.652,250.768z"/>
	<path style="fill:#FF8A57;" d="M263.712,323.886c-2.818-2-6.593-2-9.411,0c-10.858,7.71-17.339,20.247-17.339,33.536
		c0,13.289,6.482,25.827,17.339,33.537c1.409,1,3.058,1.501,4.706,1.501c1.648,0,3.296-0.501,4.706-1.501
		c10.857-7.711,17.339-20.249,17.339-33.537C281.051,344.132,274.569,331.596,263.712,323.886z"/>
</g>
<g>
</g>
<g>
</g>
<g>
</g>
<g>
</g>
<g>
</g>
<g>
</g>
<g>
</g>
<g>
</g>
<g>
</g>
<g>
</g>
<g>
</g>
<g>
</g>
<g>
</g>
<g>
</g>
<g>
</g>
</svg>
