<?xml version="1.0" encoding="iso-8859-1"?>
<!-- Generator: Adobe Illustrator 19.0.0, SVG Export Plug-In . SVG Version: 6.00 Build 0)  -->
<svg version="1.1" id="Capa_1" xmlns="http://www.w3.org/2000/svg" xmlns:xlink="http://www.w3.org/1999/xlink" x="0px" y="0px"
	 viewBox="0 0 503.607 503.607" style="enable-background:new 0 0 503.607 503.607;" xml:space="preserve">
<g>
	<path style="fill:#1F894A;" d="M243.41,310.557c-4.633,0-8.393-3.76-8.393-8.393V75.541c0-4.633,3.76-8.393,8.393-8.393
		s8.393,3.76,8.393,8.393v226.623C251.803,306.797,248.043,310.557,243.41,310.557"/>
	<path style="fill:#1F894A;" d="M243.41,83.934c-4.633,0-8.393-3.76-8.393-8.393C235.016,33.893,268.909,0,310.557,0
		c4.633,0,8.393,3.76,8.393,8.393s-3.76,8.393-8.393,8.393c-32.399,0-58.754,26.355-58.754,58.754
		C251.803,80.174,248.043,83.934,243.41,83.934"/>
</g>
<g>
	<path style="fill:#136635;" d="M412.271,25.18l-42.395,6.312c-44.762,6.673-79.914,41.816-86.578,86.587l-6.312,42.387
		l42.387-6.312c44.771-6.664,79.914-41.816,86.587-86.578L412.271,25.18z"/>
	<path style="fill:#136635;" d="M218.229,219.222l-6.312-42.395c-6.673-44.762-41.816-79.914-86.587-86.578l-42.387-6.312
		l6.312,42.387c6.664,44.771,41.816,79.914,86.578,86.587L218.229,219.222z"/>
</g>
<g>
	<path style="fill:#1F894A;" d="M243.41,201.443c-4.633,0-8.393-3.76-8.393-8.393c0-23.141,18.826-41.967,41.967-41.967
		c4.633,0,8.393,3.76,8.393,8.393c0,4.633-3.76,8.393-8.393,8.393c-13.883,0-25.18,11.298-25.18,25.18
		C251.803,197.682,248.043,201.443,243.41,201.443"/>
	<path style="fill:#1F894A;" d="M243.41,251.803c-4.633,0-8.393-3.76-8.393-8.393c0-9.258-7.529-16.787-16.787-16.787
		c-4.633,0-8.393-3.76-8.393-8.393s3.76-8.393,8.393-8.393c18.516,0,33.574,15.058,33.574,33.574
		C251.803,248.043,248.043,251.803,243.41,251.803"/>
	<path style="fill:#1F894A;" d="M243.41,92.328c-4.633,0-8.393-3.76-8.393-8.393c0-23.141-18.826-41.967-41.967-41.967
		c-4.633,0-8.393-3.76-8.393-8.393s3.76-8.393,8.393-8.393c32.399,0,58.754,26.355,58.754,58.754
		C251.803,88.568,248.043,92.328,243.41,92.328"/>
	<path style="fill:#1F894A;" d="M276.984,167.869c-2.149,0-4.297-0.823-5.934-2.459c-3.282-3.282-3.282-8.586,0-11.868L346.59,78
		c3.282-3.282,8.587-3.282,11.868,0c3.282,3.282,3.282,8.586,0,11.868l-75.541,75.541
		C281.281,167.046,279.132,167.869,276.984,167.869"/>
	<path style="fill:#1F894A;" d="M218.229,226.623c-2.149,0-4.297-0.823-5.934-2.459l-67.148-67.148
		c-3.282-3.282-3.282-8.586,0-11.868s8.586-3.282,11.868,0l67.148,67.148c3.282,3.282,3.282,8.587,0,11.868
		C222.527,225.8,220.378,226.623,218.229,226.623"/>
</g>
<path style="fill:#805333;" d="M355.921,458.284l-43.084-105.313c-11.533-28.194-38.971-50.806-69.431-50.806
	s-57.89,24.71-69.422,52.904l-56.479,140.145h226.623V474.23C344.129,466.711,349.106,460.425,355.921,458.284"/>
<g>
	<path style="fill:#5B3922;" d="M218.229,495.213h-33.574v-20.984c0-9.275,7.512-16.787,16.787-16.787s16.787,7.512,16.787,16.787
		V495.213z"/>
	<path style="fill:#5B3922;" d="M377.705,495.213h-33.574v-20.984c0-9.275,7.512-16.787,16.787-16.787s16.787,7.512,16.787,16.787
		L377.705,495.213L377.705,495.213z"/>
	<path style="fill:#5B3922;" d="M453.246,495.213h-33.574v-20.984c0-9.275,7.512-16.787,16.787-16.787s16.787,7.512,16.787,16.787
		L453.246,495.213L453.246,495.213z"/>
</g>
<path style="fill:#1F894A;" d="M495.214,503.607H8.393c-4.633,0-8.393-3.76-8.393-8.393s3.76-8.393,8.393-8.393h486.82
	c4.633,0,8.393,3.76,8.393,8.393C503.607,499.846,499.846,503.607,495.214,503.607"/>
<g>
	<path style="fill:#5B3922;" d="M243.41,386.098c-4.633,0-8.393-3.76-8.393-8.393c0-18.516,15.058-33.574,33.574-33.574
		c4.633,0,8.393,3.76,8.393,8.393s-3.76,8.393-8.393,8.393c-9.258,0-16.787,7.529-16.787,16.787
		C251.803,382.338,248.043,386.098,243.41,386.098"/>
	<path style="fill:#5B3922;" d="M276.984,461.639c-4.633,0-8.393-3.76-8.393-8.393c0-18.516,15.058-33.574,33.574-33.574
		c4.633,0,8.393,3.76,8.393,8.393s-3.76,8.393-8.393,8.393c-9.258,0-16.787,7.529-16.787,16.787
		C285.378,457.879,281.617,461.639,276.984,461.639"/>
	<path style="fill:#5B3922;" d="M218.229,436.459c-4.633,0-8.393-3.76-8.393-8.393c0-9.258-7.529-16.787-16.787-16.787
		c-4.633,0-8.393-3.76-8.393-8.393s3.76-8.393,8.393-8.393c18.516,0,33.574,15.058,33.574,33.574
		C226.623,432.699,222.863,436.459,218.229,436.459"/>
</g>
<g>
</g>
<g>
</g>
<g>
</g>
<g>
</g>
<g>
</g>
<g>
</g>
<g>
</g>
<g>
</g>
<g>
</g>
<g>
</g>
<g>
</g>
<g>
</g>
<g>
</g>
<g>
</g>
<g>
</g>
</svg>
