<?xml version="1.0" encoding="UTF-8"?>
<svg width="786px" height="689px" viewBox="0 0 786 689" version="1.1" xmlns="http://www.w3.org/2000/svg" xmlns:xlink="http://www.w3.org/1999/xlink">
    <!-- Generator: Sketch 50.2 (55047) - http://www.bohemiancoding.com/sketch -->
    <title>undraw_organize_photos_d5nr (1)</title>
    <desc>Created with Sketch.</desc>
    <defs>
        <linearGradient x1="49.9973333%" y1="100%" x2="49.9973333%" y2="0%" id="linearGradient-1">
            <stop stop-color="#808080" stop-opacity="0.25" offset="0%"></stop>
            <stop stop-color="#808080" stop-opacity="0.12" offset="54%"></stop>
            <stop stop-color="#808080" stop-opacity="0.1" offset="100%"></stop>
        </linearGradient>
        <linearGradient x1="50.0021283%" y1="100.004257%" x2="50.0021283%" y2="-1.20979481e-14%" id="linearGradient-2">
            <stop stop-color="#808080" stop-opacity="0.25" offset="0%"></stop>
            <stop stop-color="#808080" stop-opacity="0.12" offset="54%"></stop>
            <stop stop-color="#808080" stop-opacity="0.1" offset="100%"></stop>
        </linearGradient>
        <linearGradient x1="-0.00425658707%" y1="50.0021283%" x2="99.9957434%" y2="50.0021283%" id="linearGradient-3">
            <stop stop-color="#808080" stop-opacity="0.25" offset="0%"></stop>
            <stop stop-color="#808080" stop-opacity="0.12" offset="54%"></stop>
            <stop stop-color="#808080" stop-opacity="0.1" offset="100%"></stop>
        </linearGradient>
        <linearGradient x1="173.921883%" y1="100.004209%" x2="173.921883%" y2="0.000180511154%" id="linearGradient-4">
            <stop stop-color="#808080" stop-opacity="0.25" offset="0%"></stop>
            <stop stop-color="#808080" stop-opacity="0.12" offset="54%"></stop>
            <stop stop-color="#808080" stop-opacity="0.1" offset="100%"></stop>
        </linearGradient>
    </defs>
    <g id="ðŸ–¥ï¸-Landing" stroke="none" stroke-width="1" fill="none" fill-rule="evenodd">
        <g id="Desktop" transform="translate(-654.000000, -225.000000)">
            <g id="undraw_organize_photos_d5nr-(1)" transform="translate(654.000000, 225.000000)">
                <path d="M348.453333,0 L615.546667,0 C630.123179,-7.68435433e-05 641.952979,11.9475097 642,26.7167235 L642,619.283276 C641.952979,634.05249 630.123179,646.000077 615.546667,646 L348.453333,646 C333.876821,646.000077 322.047021,634.05249 322,619.283276 L322,26.7167235 C322.047021,11.9475097 333.876821,-7.68435434e-05 348.453333,0 Z" id="Shape" fill="url(#linearGradient-1)" fill-rule="nonzero"></path>
                <path d="M720.829365,573.872621 C724.514799,581.917074 719.240075,590.599145 721.069906,598.905632 C723.380819,609.387005 736.627765,617.545006 750.897011,622.750755 C765.166256,627.956503 781.102108,631.118384 795.010542,636.725918 C801.024071,639.145368 807.295323,643.608686 804.168288,647.71389 C803.085852,649.13761 801.058434,650.13334 799.073969,651.067929 C758.559965,670.074152 708.484449,680.398303 658.451887,680.066393 C605.532831,679.70828 553.713391,667.838125 500.837289,669.200704 C432.643869,670.947599 366.684046,694.583094 299.246612,687.770202 C270.622214,684.87909 244.025234,676.633744 216.156822,671.489137 C175.161735,663.916345 132.044731,663.156446 89.5892155,660.66712 C57.7089205,658.797942 21.2755249,653.950307 6.04411482,635.730188 C-4.96923419,622.558596 -0.34740754,605.159518 15.1674975,594.005591 C30.6824026,582.851664 55.475324,578.06517 78.3696884,580.213851 C90.6802415,581.375537 102.913478,584.388932 115.224031,583.192308 C122.37154,582.49355 128.96924,580.414744 135.489624,578.370877 C185.925952,562.474129 238.174929,546.612318 294.160885,544.306416 C385.222897,540.524388 469.627073,572.737139 558.343809,586.66863 C572.157744,588.83478 587.157204,590.503065 600.206562,586.869523 C613.951771,583.035088 622.972065,573.977435 636.743047,570.160468 C643.280612,568.343697 650.565573,567.819629 656.991458,565.845637 C674.654052,560.412792 666.44129,552.944814 690.959307,557.984607 C703.768124,560.648623 716.705802,564.893579 720.829365,573.872621 Z" id="Shape" fill="#04A89C" fill-rule="nonzero" opacity="0.1"></path>
                <rect id="Rectangle-3" fill="#FFFFFF" x="344" y="62" width="274" height="522"></rect>
                <g id="Group-2-Copy-4" transform="translate(354.000000, 511.000000)">
                    <rect id="Rectangle-path" fill="url(#linearGradient-2)" fill-rule="nonzero" x="0" y="0" width="246" height="98"></rect>
                    <rect id="Rectangle-path" fill="#FFFFFF" fill-rule="nonzero" x="3.75572519" y="1.8490566" width="238.48855" height="94.3018868"></rect>
                    <rect id="Rectangle" fill="#04A89C" opacity="0.5" x="7.51145038" y="3.69811321" width="234.732824" height="88.754717"></rect>
                    <rect id="Rectangle-2" fill-opacity="0.632954031" fill="#4A4A4A" x="7.51145038" y="3.69811321" width="60.0916031" height="88.754717"></rect>
                </g>
                <path d="M615.13,647 L350.87,647 C336.030109,647 324,634.969891 324,620.13 L324,34.87 C324,20.0301088 336.030109,8 350.87,8 L615.13,8 C629.969891,8 642,20.0301088 642,34.87 L642,620.13 C642,634.969891 629.969891,647 615.13,647 Z M617.538462,586.502959 L617.538462,66.6065089 L346.579882,66.6065089 L346.579882,586.502959 L617.538462,586.502959 Z" id="Combined-Shape" fill="#535461" fill-rule="nonzero"></path>
                <circle id="Oval" fill="#FFFFFF" fill-rule="nonzero" cx="511" cy="32" r="2"></circle>
                <rect id="Rectangle-path" fill="#FFFFFF" fill-rule="nonzero" transform="translate(475.000000, 32.000000) rotate(180.000000) translate(-475.000000, -32.000000) " x="448" y="30" width="54" height="4" rx="1"></rect>
                <circle id="Oval" fill="#FFFFFF" fill-rule="nonzero" cx="482" cy="609" r="17"></circle>
                <path d="M484.269134,137.069998 L484.429773,137 C483.292906,137.617511 482.934351,138.833036 483.605124,139.795621 C484.275896,140.758205 485.751976,141.146371 487,140.688375 L486.846054,140.763757 C485.58323,141.287535 484.031597,140.912356 483.337009,139.915281 C482.642421,138.918207 483.054589,137.657696 484.269134,137.064614 L484.269134,137.069998 Z" id="Shape" fill="#40243E" fill-rule="nonzero"></path>
                <path d="M477.129189,149.566772 L477,149.4732 C478.072022,150.074916 479.480995,149.83745 480.234873,148.927999 C480.988752,148.018548 480.833778,146.743237 479.879068,146 L480.020561,146.088068 C480.716179,146.550193 481.083411,147.309258 480.983923,148.079329 C480.884435,148.849401 480.333343,149.513487 479.538237,149.821433 C478.743131,150.12938 477.824807,150.034402 477.129189,149.572277 L477.129189,149.566772 Z" id="Shape" fill="#40243E" fill-rule="nonzero"></path>
                <path d="M487.129185,145.566665 L487,145.473095 C488.071991,146.074794 489.480923,145.837335 490.23478,144.927911 C490.988636,144.018488 490.833667,142.743214 489.878985,142 L490.020473,142.088066 C491.095775,142.802428 491.320242,144.161476 490.521835,145.123584 C489.723428,146.085693 488.204487,146.286531 487.129185,145.572169 L487.129185,145.566665 Z" id="Shape" fill="#40243E" fill-rule="nonzero"></path>
                <g id="Group-2-Copy" transform="translate(354.000000, 184.000000)">
                    <rect id="Rectangle-path" fill="url(#linearGradient-2)" fill-rule="nonzero" x="0" y="0" width="246" height="98"></rect>
                    <rect id="Rectangle-path" fill="#FFFFFF" fill-rule="nonzero" x="3.75572519" y="1.8490566" width="238.48855" height="94.3018868"></rect>
                    <rect id="Rectangle" fill="#04A89C" opacity="0.485267857" x="7.51145038" y="3.69811321" width="234.732824" height="88.754717"></rect>
                    <rect id="Rectangle-2" fill-opacity="0.632954031" fill="#4A4A4A" x="7.51145038" y="3.69811321" width="60.0916031" height="88.754717"></rect>
                </g>
                <g id="Group-2-Copy-2" transform="translate(354.000000, 292.000000)">
                    <rect id="Rectangle-path" fill="url(#linearGradient-2)" fill-rule="nonzero" x="0" y="0" width="246" height="98"></rect>
                    <rect id="Rectangle-path" fill="#FFFFFF" fill-rule="nonzero" x="3.75572519" y="1.8490566" width="238.48855" height="94.3018868"></rect>
                    <rect id="Rectangle" fill="#04A89C" opacity="0.5" x="7.51145038" y="3.69811321" width="234.732824" height="88.754717"></rect>
                    <rect id="Rectangle-2" fill-opacity="0.632954031" fill="#4A4A4A" x="7.51145038" y="3.69811321" width="60.0916031" height="88.754717"></rect>
                </g>
                <g id="Group-2-Copy-3" transform="translate(354.000000, 403.000000)">
                    <rect id="Rectangle-path" fill="url(#linearGradient-2)" fill-rule="nonzero" x="0" y="0" width="246" height="98"></rect>
                    <rect id="Rectangle-path" fill="#FFFFFF" fill-rule="nonzero" x="3.75572519" y="1.8490566" width="238.48855" height="94.3018868"></rect>
                    <rect id="Rectangle" fill="#04A89C" opacity="0.5" x="7.51145038" y="3.69811321" width="234.732824" height="88.754717"></rect>
                    <rect id="Rectangle-2" fill-opacity="0.632954031" fill="#4A4A4A" x="7.51145038" y="3.69811321" width="60.0916031" height="88.754717"></rect>
                </g>
                <path d="M486,152.66848 C487.327943,153.255064 488.844335,153.054062 490,152.13827 C489.83528,151.574571 489.783916,150.97966 489.849315,150.392995 C489.849315,150.392995 485.582192,146.814076 486.082192,151.129398 C486.150059,151.643206 486.122119,152.166399 486,152.66848 Z" id="Shape" fill="#000000" fill-rule="nonzero" opacity="0.1"></path>
                <circle id="Oval" fill="#FFBCC8" fill-rule="nonzero" cx="489" cy="148" r="6"></circle>
                <ellipse id="Oval" fill="#000000" fill-rule="nonzero" opacity="0.1" cx="488" cy="144" rx="5" ry="2"></ellipse>
                <path d="M495,156.09 C494.875217,156.09 491.568458,156.09 491,156" id="Shape" fill="#000000" fill-rule="nonzero" opacity="0.1"></path>
                <path d="M487,156.09 C485.663724,156.131641 484.321702,156.101446 483,156" id="Shape" fill="#000000" fill-rule="nonzero" opacity="0.1"></path>
                <path d="M490,163 C490,163 487.944563,163.496063 487.850746,164 C487.850746,164 487.083156,163.062992 486,163.019685" id="Shape" fill="#000000" fill-rule="nonzero" opacity="0.05"></path>
                <rect id="Rectangle-path" fill="url(#linearGradient-3)" fill-rule="nonzero" transform="translate(315.500000, 291.500000) rotate(-82.340000) translate(-315.500000, -291.500000) " x="214" y="190" width="203" height="203"></rect>
                <rect id="Rectangle-path" fill="#FFFFFF" fill-rule="nonzero" transform="translate(314.000000, 290.500000) rotate(-172.340000) translate(-314.000000, -290.500000) " x="217" y="191" width="194" height="199"></rect>
                <path d="M59.0266079,225.818595 C59.0266079,225.382693 59.0695399,224.969733 59.1554039,224.579715 C59.2412679,224.189697 59.3156833,223.73372 59.3786503,223.211784 C59.5389297,222.317036 59.7221062,221.456702 59.9281798,220.630782 C60.0312166,220.217821 60.1371155,219.810597 60.2458766,219.409108 C61.4693389,214.803835 63.6687026,210.516738 66.6942622,206.839628 L67.2094462,206.237395 C67.5529021,205.847377 67.893496,205.480301 68.2312277,205.136167 C68.5689594,204.792034 68.9009668,204.470842 69.2272499,204.172593 C69.5535331,203.871476 69.8712299,203.596169 70.1803402,203.312259 C70.7899746,202.796059 71.3652633,202.374495 71.89762,202.021758 C72.4299768,201.669021 72.6188776,201.531368 72.9194015,201.350698 C73.6505244,200.906176 74.4723294,200.632681 75.3235933,200.550587 L80.6214015,200.01718 L87.7824582,199.303103 L113.661865,189.065129 L114.683646,189.435072 C115.43954,187.312305 116.078754,185.149624 116.598413,182.956758 C115.812386,182.608254 115.114142,182.087947 114.55485,181.433967 C113.940795,180.94632 113.456974,180.313747 113.146681,179.592852 C112.494115,178.061458 113.739142,174.792188 113.490137,172.91666 C113.07799,169.914095 111.549611,167.014769 110.304583,164.313321 C107.642799,158.471653 105.702273,152.139595 106.011383,145.730107 C106.320494,139.320619 109.196937,132.825098 114.511918,129.228902 C117.259566,127.379184 120.522398,126.381197 123.347323,124.694942 C125.5712,123.378631 127.528899,121.657963 129.64974,120.178189 C140.21912,112.987012 153.817899,112.002739 165.309055,117.597187 C170.684141,120.298636 175.269278,124.324998 180.34384,127.559854 C185.418402,130.79471 191.394535,133.281075 197.327737,132.326104 C197.412191,132.569073 197.472587,132.819777 197.508051,133.074595 L198.006062,133.014371 C199.027844,135.853474 196.520615,138.658162 194.210874,140.593914 C189.831811,144.276143 184.860286,147.941166 179.141744,148.070216 C176.935039,148.121836 174.599539,147.648652 172.590321,148.569209 C172.15354,148.77586 171.743998,149.035942 171.371053,149.34351 C173.953291,159.892106 170.507783,171.007011 162.415439,178.233524 L175.62132,173.389844 C175.62132,173.389844 176.17085,173.682358 177.02949,174.250178 L195.361452,161.792542 C195.361452,161.792542 232.136999,148.147646 242.354813,169.303258 C252.572628,190.45887 198.08334,179.541232 198.08334,179.541232 L186.42301,186.071167 C186.809165,188.519515 186.358324,191.026771 185.143637,193.186128 L153.37396,213.197496 C159.796587,215.210678 170.349271,218.43693 172.264038,218.43693 C174.985927,218.43693 182.481853,221.164189 187.247305,232.081827 C192.012756,242.999465 209.039585,296.228327 224.022852,305.09837 C239.006118,313.968413 278.51214,373.340059 278.51214,373.340059 L278.331825,373.80464 C279.03591,373.993913 279.725684,374.200393 280.401148,374.42408 C290.284093,377.701952 296.929966,384.601831 300.939814,390.194001 C302.299504,392.116368 302.554913,394.61188 301.612927,396.770747 C300.670942,398.929614 298.66921,400.43637 296.337504,400.741696 C280.744603,402.746274 272.226896,395.433435 268.131183,389.901488 C267.865005,389.540148 267.615999,389.187411 267.384167,388.85188 C266.167645,389.383652 264.798293,389.447967 263.53746,389.032551 L244.406963,373.348663 C244.406963,373.348663 259.330124,388.30987 250.580584,401.93756 L251.241736,402.883927 C266.021368,424.379106 276.844658,448.349789 283.200314,473.663602 C283.200314,473.663602 291.374565,479.806387 292.052891,504.368921 C292.731217,528.931456 300.905468,568.515421 300.905468,568.515421 C300.905468,568.515421 306.383591,615.610102 302.949031,629.943265 C302.949031,629.943265 302.554057,630.511086 301.832799,631.388627 C302.090391,631.698347 302.365156,632.025274 302.691439,632.378011 C305.662333,635.64728 311.028833,640.164033 317.288318,638.821912 C326.827807,636.774317 326.827807,653.834739 313.201192,655.168257 C304.425892,656.028591 287.192989,660.037747 276.022084,662.773609 C273.527993,663.385041 270.892985,662.740951 268.960096,661.047406 C267.027207,659.353862 266.038712,656.823138 266.310867,654.264906 C266.980606,648.147932 268.191288,640.74906 270.397993,635.483816 C270.535375,635.156889 270.672757,634.838566 270.818726,634.528845 C270.415165,634.150299 270.020191,633.754545 269.61663,633.332981 C269.61663,633.332981 269.61663,603.307326 264.851179,595.116947 C264.851179,595.116947 251.911476,533.018042 252.589801,517.316947 C253.147917,505.065792 219.008395,457.231223 204.205443,437.030582 L204.325652,436.264885 C200.530464,431.102881 198.126272,427.936852 198.126272,427.936852 L186.551806,502.321326 C186.551806,502.321326 181.099443,518.667671 174.290428,527.572128 C174.290428,527.572128 145.002221,584.216516 141.602007,601.956602 C139.026088,615.412225 133.70252,623.361711 131.298328,626.4245 C131.58168,626.70841 131.873617,627.000923 132.156968,627.284834 C135.256658,630.175556 139.833209,633.083484 145.036567,631.973654 C154.576056,629.926059 154.576056,646.986481 140.949441,648.319999 C132.174141,649.180333 114.941238,653.189489 103.770333,655.925351 C101.276242,656.536783 98.6412338,655.892692 96.7083449,654.199148 C94.7754559,652.505604 93.7869609,649.97488 94.0591159,647.416648 C94.8318918,640.31029 96.3516845,631.483263 99.2882329,626.261036 C99.5343764,625.819398 99.7919683,625.406438 100.061009,625.022155 C99.0203042,624.594498 98.0940049,623.928604 97.3562931,623.077801 C97.3562931,623.077801 115.061448,580.061103 115.061448,568.481008 C115.061448,568.481008 122.557374,524.122189 147.749869,507.74143 C147.749869,507.74143 145.36285,452.267097 138.193207,421.389711 C138.015755,420.626881 137.83544,419.881259 137.652264,419.152842 C130.962169,418.086446 124.330607,416.679412 117.783336,414.937206 L117.105011,394.461258 L113.670451,410.807603 L75.4953212,386.993559 C75.4953212,386.993559 75.8301908,382.691889 76.4741707,376.093128 C76.8004539,372.789446 77.1954282,368.917943 77.6762666,364.719513 C78.0540681,361.364211 78.4919745,357.836841 78.9642264,354.154612 C79.084436,353.242658 79.2075077,352.327836 79.3334416,351.410147 C79.8314527,347.736521 80.3809823,344.011275 80.9734438,340.372062 C81.1966902,339.006999 81.4256608,337.656274 81.6603557,336.319889 C81.9694661,334.538998 82.2957493,332.79252 82.6306188,331.089059 C82.7966225,330.240196 82.9683505,329.402804 83.1458028,328.576883 C83.323255,327.750963 83.5007073,326.942249 83.6781595,326.150742 C83.8556117,325.359234 84.0359261,324.582066 84.2191026,323.819237 L84.4938674,322.692199 C84.6827682,321.952312 84.871669,321.232499 85.0605697,320.532761 C85.8605857,317.61289 86.3244079,314.61086 86.44298,311.585288 C86.4887741,310.38082 86.4887741,309.17922 86.44298,307.980488 C86.3971859,306.781756 86.2827005,305.585892 86.099524,304.392896 C86.0193843,303.81934 85.9220718,303.225709 85.8075865,302.612005 C85.3692036,300.23674 84.722722,297.904815 83.8756467,295.6433 C83.452051,294.496188 82.9769369,293.377753 82.4503044,292.287997 C81.213863,289.706995 79.8743847,286.91091 78.5349065,283.968568 C77.8537188,282.494529 77.1668069,280.988944 76.4741707,279.451814 C75.7815345,277.914684 75.0831741,276.354612 74.3790894,274.771598 C67.7503893,259.73296 61.2075533,242.939241 59.4559279,231.944173 C59.2756135,230.782722 59.1382311,229.690098 59.0695399,228.666301 C58.9945213,227.71896 58.9801812,226.767775 59.0266079,225.818595 Z" id="Shape" fill="url(#linearGradient-4)" fill-rule="nonzero"></path>
                <path d="M176,183.437995 L199.018049,168.204693 C199.018049,168.204693 235.577679,154.959465 245.731666,175.485695 C255.885652,196.011925 201.736924,185.417464 201.736924,185.417464 L178.718875,198 L176,183.437995 Z" id="Shape" fill="#F7BBC3" fill-rule="nonzero" transform="translate(211.500000, 181.000000) rotate(-2.000000) translate(-211.500000, -181.000000) "></path>
                <path d="M110.15732,646.774517 C120.599147,644.183922 136.708686,640.39896 144.908251,639.566269 C157.641985,638.270971 157.641985,622.096568 148.730854,624.039515 C143.898819,625.090893 139.629419,622.35731 136.725234,619.590083 C135.825857,618.733272 134.982848,617.8173 134.201655,616.848088 C133.14093,615.558099 131.683491,614.669156 130.064639,614.324781 C125.290523,613.264992 115.353411,611.666897 109.238902,615.014485 C107.823347,615.902273 106.677696,617.171708 105.92929,618.681692 C103.182311,623.635786 101.792274,632.004757 101.039337,638.741988 C100.791495,641.171672 101.725389,643.571462 103.541308,645.171204 C105.357227,646.770947 107.826741,647.369405 110.15732,646.774517 Z" id="Shape" fill="#535461" fill-rule="nonzero"></path>
                <path d="M276.145432,651.778076 C286.590027,649.186562 302.703837,645.400259 310.905576,644.567272 C323.642686,643.271515 323.642686,627.091379 314.729192,629.035015 C308.935834,630.313944 303.879061,626.0228 301.106526,622.926445 C300.7672,622.547815 300.46098,622.186013 300.196141,621.849453 C299.135136,620.559006 297.677309,619.669748 296.058029,619.32525 C291.282647,618.265085 281.342901,616.666424 275.226771,620.015199 C273.439106,620.999638 272.007319,623.153624 270.8652,625.905004 C268.80442,630.902924 267.670577,637.920206 267.041584,643.717457 C266.786619,646.148441 267.714933,648.552899 269.528349,650.158512 C271.341764,651.764124 273.811934,652.368711 276.145432,651.778076 Z" id="Shape" fill="#535461" fill-rule="nonzero"></path>
                <path d="M271,625.465629 C286.597644,640.52408 299.970693,625.187211 302,622.657582 C301.651876,622.299615 301.337716,621.957559 301.066009,621.639366 C299.977492,620.419346 298.481865,619.57862 296.820597,619.252924 C291.921391,618.250618 281.723911,616.739205 275.449192,619.905218 C273.640646,620.780247 272.171734,622.824633 271,625.465629 Z" id="Shape" fill="#000000" fill-rule="nonzero" opacity="0.1"></path>
                <path d="M106,619.133357 C112.672047,624.087358 134.981706,622.867071 134.981706,622.867071 C135.714626,622.011408 136.389193,621.098306 137,620.135085 C136.093446,619.207416 135.243709,618.215693 134.456282,617.166327 C133.387093,615.769655 131.918023,614.807196 130.286252,614.434341 C125.474038,613.286906 115.457627,611.556649 109.294323,615.181083 C107.885139,616.143809 106.745496,617.511063 106,619.133357 Z" id="Shape" fill="#000000" fill-rule="nonzero" opacity="0.1"></path>
                <path d="M106,613.996079 C110.628877,619.912334 137.053837,618.60426 137.053837,618.60426 C137.053837,618.60426 144.980467,610.71307 148.286807,593.605516 C151.593148,576.497963 180.001913,521.909392 180.001913,521.909392 C186.606006,513.35989 191.896151,497.56896 191.896151,497.56896 L203.12912,425.907033 C203.12912,425.907033 257.301578,496.927747 256.674661,512.060366 C256.047745,527.192984 268.568899,587.048048 268.568899,587.048048 C273.197776,594.939239 273.197776,623.879303 273.197776,623.879303 C290.373571,641.636619 304.912881,620.587745 304.912881,620.587745 C308.219222,606.771749 302.929077,561.390993 302.929077,561.390993 C302.929077,561.390993 295.002448,523.243114 294.341179,499.560994 C293.679911,475.878873 285.753282,469.962618 285.753282,469.962618 C279.581116,445.557869 269.072876,422.449286 254.725208,401.729042 C250.663133,396.043623 248.086764,393 248.086764,393 L141.012858,405.499372 C142.730437,408.919173 144.267671,413.818038 145.615971,419.6146 C152.572168,449.375417 154.882312,502.852552 154.882312,502.852552 C130.432568,518.634933 123.167207,561.390993 123.167207,561.390993 C123.175795,572.573741 106,613.996079 106,613.996079 Z" id="Shape" fill="#F88787" fill-rule="nonzero"></path>
                <g id="Group" opacity="0.05" transform="translate(102.000000, 393.000000)" fill="#000000" fill-rule="nonzero">
                    <path d="M106.022903,42.3022939 L107.416452,33.4116129 C107.416452,33.4116129 162.365806,105.482509 161.695161,120.835197 C161.024516,136.187885 173.758065,196.913405 173.758065,196.913405 C178.452581,204.919355 178.452581,234.280287 178.452581,234.280287 C182.101935,238.053405 185.638065,240.10043 188.904194,240.976487 C183.626129,242.355627 177.207097,241.349462 170.37,234.280287 C170.37,234.280287 170.37,204.919355 165.675484,196.913405 C165.675484,196.913405 152.941935,136.196559 153.612581,120.835197 C154.17871,108.821935 120.629032,62.0526165 106.022903,42.3022939 Z" id="Shape"></path>
                    <path d="M18.2903226,170.883226 C18.2903226,170.883226 25.6587097,127.51405 50.4551613,111.493477 C50.4551613,111.493477 48.1122581,57.2473118 41.0574194,27.0450179 C39.6812903,21.1641577 38.1396774,16.202724 36.3890323,12.7245161 L144.946452,0.0433691756 C144.946452,0.0433691756 145.199032,0.33827957 145.660645,0.910752688 L44.4280645,12.7245161 C46.17,16.1940502 47.7290323,21.1641577 49.0964516,27.0450179 C56.1512903,57.238638 58.4941935,111.493477 58.4941935,111.493477 C33.7064516,127.505376 26.3206452,170.883226 26.3206452,170.883226 C26.3206452,182.228602 8.90129032,224.270681 8.90129032,224.270681 C11.6622581,227.809606 22.113871,228.798423 30.2312903,229.015269 C23.7948387,229.180072 4.74677419,229.240789 0.862258065,224.270681 C0.870967742,224.253333 18.2903226,182.228602 18.2903226,170.883226 Z" id="Shape"></path>
                </g>
                <path d="M267,382.426511 C267.79521,384.41396 268.844257,386.285118 270.119823,387.991257 C274.077297,393.433701 282.299953,400.640789 297.360578,398.666484 C299.613085,398.368333 301.547698,396.884914 302.45781,394.758038 C303.367922,392.631162 303.120251,390.172301 301.805257,388.279541 C297.941805,382.775946 291.548305,375.970707 281.97515,372.747173 C279.255983,371.822778 276.437856,371.23617 273.581544,371 L267,382.426511 Z" id="Shape" fill="#F7BBC3" fill-rule="nonzero"></path>
                <path d="M128,197.560667 L180.475061,178 C180.475061,178 195.562704,186.008 189.609293,197.344 L138.580061,230 L128,197.560667 Z" id="Shape" fill="#CBCDDA" fill-rule="nonzero"></path>
                <path d="M128,197.560667 L180.475061,178 C180.475061,178 195.562704,186.008 189.609293,197.344 L138.580061,230 L128,197.560667 Z" id="Shape" fill="#000000" fill-rule="nonzero" opacity="0.1" transform="translate(159.500000, 204.000000) rotate(-2.000000) translate(-159.500000, -204.000000) "></path>
                <path d="M125.169222,165.338268 C125.169222,165.338268 125.816766,197.204859 112.226749,208.053248 C98.6367324,218.901637 151.693301,225 151.693301,225 C151.693301,225 143.283637,192.454833 151.693301,175.508081 C160.102965,158.561329 125.169222,165.338268 125.169222,165.338268 Z" id="Shape" fill="#F7BBC3" fill-rule="nonzero"></path>
                <path d="M140,405.170396 C141.722575,408.500189 143.264279,413.270119 144.6165,418.914119 C208.704896,428.370733 253.31097,402.606455 253.31097,402.606455 C253.552131,402.231853 253.784678,401.865576 254,401.499298 C249.969175,395.963516 247.385313,393 247.385313,393 L140,405.170396 Z" id="Shape" fill="#000000" fill-rule="nonzero" opacity="0.1"></path>
                <path d="M267,382.435252 C267.743427,384.422702 268.724163,386.29386 269.916667,388 C275.606164,386.969168 280.160959,375.070915 281,372.747174 C278.457899,371.822779 275.823283,371.23617 273.152968,371 L267,382.435252 Z" id="Shape" fill="#000000" fill-rule="nonzero" opacity="0.1"></path>
                <g id="Group-3-Copy" transform="translate(214.000000, 282.000000)">
                    <polygon id="Path-2" fill="#04A89C" opacity="0.485267857" points="11.4545455 0 -2.84217094e-14 85.7627119 175.636364 110 189 24.2372881"></polygon>
                    <polygon id="Path-3" fill-opacity="0.632954031" fill="#4A4A4A" points="0 85.7627119 51.5454545 93.220339 64.9090909 7.45762712 11.4545455 -5.68434189e-14"></polygon>
                </g>
                <path d="M119.781086,191 L143.467251,199.621355 L153.335062,212.889619 C153.335062,212.889619 173.729106,219.519441 176.362802,219.519441 C178.996499,219.519441 186.230613,222.174818 190.839581,232.787706 C195.44855,243.400593 211.89205,295.137342 226.368829,303.758697 C240.845607,312.380051 279,370.091399 279,370.091399 C279,370.091399 272.42431,387.997952 264.523221,385.351196 L246.130102,370.091399 C246.130102,370.091399 260.606881,384.687352 252.047368,397.946996 C252.047368,397.946996 198.099348,430.449502 123.782937,410.551416 L123.124513,390.65333 L119.832392,406.56835 L82.9948477,383.351042 C82.9948477,383.351042 86.2271113,340.546017 92.2127848,318.751232 C94.6764329,309.577769 93.7652655,299.815388 89.6474962,291.266354 C80.0960715,271.19584 65.3542129,237.676014 67.149915,225.450933 C69.2705536,211.044649 77.3426618,204.759682 80.4210081,202.897469 C81.1259997,202.466982 81.9179637,202.201803 82.7383188,202.121547 L94.7780734,200.949043 L119.781086,191 Z" id="Shape" fill="#CBCDDA" fill-rule="nonzero"></path>
                <path d="M159,259 C159,259 171.962358,320.824354 186.213372,330.795745 C200.464386,340.767136 238.702922,372.677316 240,378" id="Shape" fill="#000000" fill-rule="nonzero" opacity="0.05"></path>
                <path d="M165,259 C165,259 177.962358,320.824354 192.213372,330.795745 C206.464386,340.767136 244.702922,372.677316 246,378" id="Shape" fill="#CBCDDA" fill-rule="nonzero"></path>
                <path d="M155,214 C155,214 110.028188,198.663407 97,202.666518" id="Shape" fill="#000000" fill-rule="nonzero" opacity="0.1"></path>
                <g id="Group" opacity="0.05" transform="translate(66.000000, 191.000000)" fill="#000000" fill-rule="nonzero">
                    <path d="M22.2709091,100.289402 C13.1318182,80.2556175 -0.973636364,46.7971315 0.744545455,34.5944223 C2.77363636,20.214502 10.4972727,13.9410359 13.4427273,12.0822311 C14.1172845,11.6525315 14.8750595,11.3878377 15.66,11.3077291 L20.5690909,10.7913944 C20.0560007,10.9213987 19.5648569,11.1332551 19.1127273,11.4196016 C16.1672727,13.3128287 8.47636364,19.5518725 6.41454545,33.9317928 C4.69636364,46.1258964 18.8018182,79.592988 27.9409091,99.6267729 C31.8728598,108.150273 32.7445499,117.880973 30.3954545,127.026932 C24.6681818,148.781833 21.5509091,191.517131 21.5509091,191.517131 L51.9054545,211.473466 L51.1363636,215.354582 L15.8890909,192.179761 C15.8890909,192.179761 18.9981818,149.478884 24.7254545,127.723984 C27.0827473,118.567308 26.2109149,108.822792 22.2709091,100.289402 Z" id="Shape"></path>
                    <polygon id="Shape" points="32.85 9.47474104 27.4009091 10.0513147 51.1036364 0.206533865 53.2309091 1.01545817"></polygon>
                </g>
                <path d="M168,322 C168,322 147.567208,309.855153 140.979025,312.714949 C134.390842,315.574745 110,312 110,312" id="Shape" fill="#000000" fill-rule="nonzero" opacity="0.05"></path>
                <path d="M126.275778,173.989087 C127.02027,167.302313 124,168.317037 124,168.317037 C124,168.317037 159.151886,161.647609 150.683285,178.325517 C148.56825,182.505835 147.510732,187.640168 147.113106,192.999995 L146.78316,192.999995 C136.977857,193.008668 131.275721,181.794661 126.275778,173.989087 Z" id="Shape" fill="#000000" fill-rule="nonzero" opacity="0.05"></path>
                <circle id="Oval" fill="#F7BBC3" fill-rule="nonzero" cx="147" cy="159" r="27"></circle>
                <path d="M116.094387,168.014894 C113.572507,162.446392 111.723129,156.403974 112.034161,150.243077 C112.345193,144.082181 115.060416,137.929747 120.104176,134.544639 C122.710118,132.77592 125.786811,131.82809 128.510441,130.220164 C130.620414,128.959211 132.486604,127.325896 134.495702,125.904151 C144.528846,119.038072 157.441614,118.092474 168.356139,123.424559 C173.458742,125.96339 177.813187,129.847802 182.64679,132.92825 C187.480392,136.008698 193.137809,138.386737 198.778413,137.472757 C199.745133,140.180844 197.36616,142.855079 195.172125,144.708426 C191.011024,148.220475 186.295109,151.724062 180.881474,151.842541 C178.779908,151.893318 176.56906,151.436328 174.660838,152.324919 C173.375254,153.037117 172.283872,154.057355 171.483269,155.295351 C168.870211,158.788458 166.656597,162.566961 164.884351,166.559298 C164.161412,168.192613 163.421661,169.944406 161.925346,170.93455 C159.403466,172.542476 156.183866,171.205359 153.224861,171.08688 C148.618228,170.909162 144.482345,173.820355 141.069401,176.951579 C137.656458,180.082804 134.420045,183.637168 130.141256,185.287408 C126.930063,186.51451 120.507676,186.472196 118.868455,182.60471 C118.254797,181.149113 119.431674,178.026351 119.187893,176.240707 C118.725548,173.380291 117.271264,170.612965 116.094387,168.014894 Z" id="Shape" fill="#000000" fill-rule="nonzero" opacity="0.1"></path>
                <path d="M116.094387,168.065671 C113.572507,162.497168 111.723129,156.454751 112.034161,150.293854 C112.345193,144.132957 115.060416,137.963598 120.104176,134.544639 C122.710118,132.77592 125.786811,131.82809 128.510441,130.220164 C130.620414,128.959211 132.486604,127.325896 134.495702,125.904151 C144.528846,119.038072 157.441614,118.092474 168.356139,123.424559 C173.458742,125.96339 177.813187,129.847802 182.64679,132.92825 C187.480392,136.008698 193.137809,138.386737 198.778413,137.472757 C199.745133,140.180844 197.36616,142.855079 195.172125,144.708426 C191.011024,148.220475 186.295109,151.724062 180.881474,151.842541 C178.779908,151.893318 176.56906,151.436328 174.660838,152.324919 C173.375254,153.037117 172.283872,154.057355 171.483269,155.295351 C168.870211,158.788458 166.656597,162.566961 164.884351,166.559298 C164.161412,168.192613 163.421661,169.944406 161.925346,170.93455 C159.403466,172.542476 156.183866,171.205359 153.224861,171.08688 C148.618228,170.909162 144.482345,173.820355 141.069401,176.951579 C137.656458,180.082804 134.420045,183.637168 130.141256,185.287408 C126.930063,186.51451 120.507676,186.472196 118.868455,182.60471 C118.254797,181.149113 119.431674,178.026351 119.187893,176.240707 C118.725548,173.431067 117.271264,170.663741 116.094387,168.065671 Z" id="Shape" fill="#A95F60" fill-rule="nonzero"></path>
                <g id="Group-2" transform="translate(354.000000, 72.000000)">
                    <rect id="Rectangle-path" fill="url(#linearGradient-2)" fill-rule="nonzero" x="0" y="0" width="246" height="98"></rect>
                    <rect id="Rectangle-path" fill="#FFFFFF" fill-rule="nonzero" x="3.75572519" y="1.8490566" width="238.48855" height="94.3018868"></rect>
                    <rect id="Rectangle" fill="#04A89C" opacity="0.485267857" x="7.51145038" y="3.69811321" width="234.732824" height="88.754717"></rect>
                    <rect id="Rectangle-2" fill-opacity="0.632954031" fill="#4A4A4A" x="7.51145038" y="3.69811321" width="60.0916031" height="88.754717"></rect>
                </g>
                <g id="Group-3" transform="translate(226.000000, 190.000000)">
                    <polygon id="Path-2" fill="#04A89C" opacity="0.485267857" points="11.4545455 0 -2.84217094e-14 85.7627119 175.636364 110 189 24.2372881"></polygon>
                    <polygon id="Path-3" fill-opacity="0.632954031" fill="#4A4A4A" points="0 85.7627119 51.5454545 93.220339 64.9090909 7.45762712 11.4545455 -5.68434189e-14"></polygon>
                </g>
            </g>
        </g>
    </g>
</svg>