<?xml version="1.0" encoding="iso-8859-1"?>
<!-- Generator: Adobe Illustrator 19.0.0, SVG Export Plug-In . SVG Version: 6.00 Build 0)  -->
<svg version="1.1" id="Capa_1" xmlns="http://www.w3.org/2000/svg" xmlns:xlink="http://www.w3.org/1999/xlink" x="0px" y="0px"
	 viewBox="0 0 512.001 512.001" style="enable-background:new 0 0 512.001 512.001;" xml:space="preserve">
<g>
	<path style="fill:#FFCCA9;" d="M323.883,55.82c0,0-25.531-45.82-68.034-45.82H139.986c-26.935,0-48.77,21.835-48.77,48.77v95.429
		c0,15.268,12.377,27.646,27.646,27.646l0,0c15.268,0,27.646-12.378,27.646-27.646v-44.71h57.674l50.306,44.848l69.395-7.157v12.267
		H480.79V55.82H323.883z"/>
	<path style="fill:#FFCCA9;" d="M344.961,142.158L344.961,142.158c0,23.542-19.084,42.626-42.626,42.626h-29.886
		c-10.776,0-21.12-4.236-28.801-11.794l-73.66-72.858c-9.767-9.767-9.767-25.602,0-35.369l0.081-0.08
		c9.774-9.763,25.61-9.758,35.379,0.01l51.816,51.815"/>
</g>
<path d="M480.79,45.82H329.43C320.783,32.829,295.048,0,255.849,0H139.986c-32.406,0-58.77,26.364-58.77,58.771V154.2
	c0,20.759,16.888,37.646,37.646,37.646s37.646-16.888,37.646-37.646v-34.71h18.831l61.296,60.628
	c9.611,9.458,22.331,14.666,35.814,14.666h29.887c19.034,0,35.74-10.158,44.983-25.337H480.79c5.523,0,10-4.478,10-10V55.82
	C490.79,50.298,486.313,45.82,480.79,45.82z M470.79,149.446H354.458c0.332-2.383,0.503-4.816,0.503-7.289c0-5.522-4.477-10-10-10
	s-10,4.478-10,10c0,17.99-14.636,32.626-32.626,32.626h-29.887c-8.202,0-15.939-3.169-21.768-8.903l-73.622-72.819
	c-5.852-5.852-5.852-15.374,0.021-21.247l0.055-0.056c5.857-5.851,15.386-5.849,21.24,0.006l51.816,51.815
	c3.905,3.904,10.237,3.904,14.142,0c3.905-3.905,3.905-10.237-0.001-14.143l-51.815-51.815
	c-13.647-13.646-35.86-13.654-49.542,0.012l-0.06,0.06c-11.297,11.297-13.244,28.457-5.82,41.797h-10.589c-5.523,0-10,4.477-10,10
	v44.71c0,9.73-7.916,17.646-17.646,17.646s-17.646-7.916-17.646-17.646V58.771c0-21.378,17.393-38.771,38.77-38.771h115.862
	c35.99,0,59.08,40.299,59.299,40.688c1.766,3.169,5.108,5.133,8.735,5.133H470.79V149.446z"/>
<path style="fill:#6F9CFF;" d="M208.512,216.747c-8.862,14.841-36.222,14.825-36.222,14.825s-12.992-24.079-4.13-38.92
	s36.222-14.825,36.222-14.825S217.374,201.905,208.512,216.747z"/>
<path d="M172.302,241.572c-0.006,0-0.012,0-0.018,0c-3.673-0.002-7.05-2.019-8.795-5.252c-1.606-2.976-15.359-29.631-3.916-48.796
	c11.423-19.13,41.327-19.698,44.796-19.698c0.006,0,0.012,0,0.018,0c3.673,0.002,7.05,2.018,8.795,5.252
	c1.606,2.976,15.359,29.631,3.915,48.796c0,0,0,0-0.001,0C205.675,241.004,175.772,241.572,172.302,241.572z M198.159,188.284
	c-7.786,1.009-18.01,3.795-21.413,9.494c-3.433,5.75-1.047,16.026,1.768,23.335c7.786-1.008,18.01-3.794,21.413-9.493l0,0
	C203.36,205.87,200.974,195.594,198.159,188.284z M208.513,216.747h0.01H208.513z"/>
<path style="fill:#6F9CFF;" d="M162.045,307.188c-8.862,14.841-36.222,14.825-36.222,14.825s-12.992-24.079-4.13-38.92
	c8.862-14.841,36.222-14.825,36.222-14.825S170.907,292.347,162.045,307.188z"/>
<path d="M125.835,332.014c-0.007,0-0.013,0-0.019,0c-3.674-0.002-7.05-2.019-8.795-5.252c-1.606-2.976-15.359-29.631-3.915-48.795
	c11.422-19.129,41.32-19.698,44.795-19.698c0.007,0,0.013,0,0.019,0c3.674,0.002,7.05,2.019,8.795,5.251
	c1.605,2.977,15.359,29.631,3.916,48.796l0,0C159.208,331.444,129.311,332.014,125.835,332.014z M151.667,278.73
	c-7.783,1.01-17.989,3.796-21.389,9.49c-3.399,5.691-1.013,15.992,1.792,23.331c7.783-1.01,17.989-3.796,21.389-9.49
	C156.857,296.37,154.472,286.069,151.667,278.73z M162.045,307.189h0.01H162.045z"/>
<path style="fill:#8ABCFF;" d="M233.5,263.352c12.223,12.223,5.515,38.748,5.515,38.748s-26.525,6.708-38.748-5.515
	c-12.223-12.223-5.515-38.748-5.515-38.748S221.277,251.129,233.5,263.352z"/>
<path d="M223.211,313.965c-9.942,0.001-21.797-2.091-30.016-10.309c-15.784-15.783-8.968-44.992-8.139-48.272
	c0.901-3.562,3.682-6.342,7.243-7.242c3.279-0.828,32.488-7.645,48.271,8.138h-0.001h0.001c15.784,15.783,8.968,44.992,8.139,48.271
	c-0.901,3.562-3.682,6.342-7.243,7.242C239.896,312.191,232.364,313.965,223.211,313.965z M239.015,302.1h0.01H239.015z
	 M203.367,266.454c-0.924,7.794-0.719,18.371,3.97,23.06c4.688,4.688,15.259,4.893,23.062,3.969
	c0.924-7.794,0.719-18.371-3.97-23.059h-0.001C221.742,265.734,211.171,265.528,203.367,266.454z"/>
<path style="fill:#00D87E;" d="M406.96,385.336C340.538,404.758,288.362,447.914,266.401,502h218.791
	C477.844,455.547,449.025,414.463,406.96,385.336z"/>
<path style="fill:#009C5B;" d="M406.96,385.336C366.469,357.3,313.705,340.343,256,340.343
	c-117.656,0-214.77,70.491-229.192,161.657h239.593C288.362,447.914,340.538,404.758,406.96,385.336z"/>
<path d="M131.87,465.37c-0.65,0-1.309-0.07-1.95-0.2c-0.64-0.13-1.27-0.32-1.87-0.57c-0.61-0.25-1.19-0.56-1.73-0.92
	c-0.55-0.36-1.06-0.78-1.52-1.24s-0.88-0.97-1.24-1.52c-0.36-0.54-0.671-1.13-0.921-1.73s-0.44-1.23-0.57-1.87
	c-0.13-0.64-0.2-1.3-0.2-1.949c0-0.65,0.07-1.31,0.2-1.96c0.13-0.641,0.32-1.261,0.57-1.87c0.25-0.6,0.56-1.181,0.921-1.721
	c0.36-0.55,0.78-1.06,1.24-1.52s0.97-0.88,1.52-1.25c0.54-0.36,1.12-0.67,1.73-0.92c0.6-0.25,1.23-0.44,1.87-0.57
	c3.24-0.66,6.7,0.41,9.02,2.74c0.46,0.46,0.88,0.97,1.25,1.52c0.36,0.54,0.66,1.12,0.91,1.721c0.25,0.609,0.45,1.229,0.58,1.87
	c0.13,0.649,0.19,1.31,0.19,1.96c0,0.649-0.059,1.31-0.19,1.949c-0.13,0.641-0.33,1.271-0.58,1.87c-0.25,0.6-0.55,1.19-0.91,1.73
	c-0.37,0.55-0.79,1.06-1.25,1.52s-0.97,0.88-1.52,1.24c-0.54,0.36-1.12,0.67-1.72,0.92c-0.61,0.25-1.24,0.44-1.88,0.57
	C133.18,465.3,132.52,465.37,131.87,465.37z"/>
<path d="M495.069,500.438c-7.59-47.981-36.86-91.778-82.417-123.323c-3.141-2.175-10-6.565-10.205-6.683
	C360.57,344.51,309.064,330.343,256,330.343c-58.646,0-115.151,17.222-159.106,48.493c-44.126,31.394-72.525,74.579-79.963,121.602
	c-0.458,2.889,0.373,5.834,2.273,8.058c1.9,2.224,4.678,3.505,7.604,3.505h458.385c2.925,0,5.704-1.28,7.603-3.505
	C494.697,506.272,495.527,503.326,495.069,500.438z M256,350.343c25.066,0,49.727,3.378,73.001,9.842
	c-0.877-0.008-1.755-0.012-2.633-0.012c-33.602,0-66.116,5.482-96.639,16.295c-29.605,10.487-55.935,25.46-78.257,44.503
	c-4.202,3.584-4.703,9.896-1.118,14.098c1.978,2.318,4.786,3.51,7.613,3.51c2.295,0,4.602-0.786,6.485-2.393
	c41.729-35.597,100.745-56.013,161.916-56.013c17.429,0,34.656,1.602,51.42,4.774c-23.734,9.697-45.569,22.605-64.163,38.025
	c-23.665,19.623-42.159,43.376-53.807,69.028H39.01C58.951,410.463,149.751,350.343,256,350.343z M282.089,492
	c22.923-43.342,67.7-78.334,123.082-95.675c35.128,25.492,58.821,58.998,67.816,95.675H282.089z"/>
<g>
</g>
<g>
</g>
<g>
</g>
<g>
</g>
<g>
</g>
<g>
</g>
<g>
</g>
<g>
</g>
<g>
</g>
<g>
</g>
<g>
</g>
<g>
</g>
<g>
</g>
<g>
</g>
<g>
</g>
</svg>
